THE HEAVY 2010 DVDRIP H264 PSP

Format                           : MPEG-4
Format profile                   : Base Media / Version 2
Codec ID                         : mp42
File size                        : 325 MiB
Duration                         : 1h 41mn
Overall bit rate                 : 447 Kbps
Encoded date                     : UTC 2010-03-29 15:39:25
Tagged date                      : UTC 2010-03-29 15:39:46
Writing application              : mp4creator 1.6.1d

Video
ID                               : 1
Format                           : AVC
Format/Info                      : Advanced Video Codec
Format profile                   : Baseline@L1.3
Format settings, CABAC           : No
Format settings, ReFrames        : 1 frame
Codec ID                         : avc1
Codec ID/Info                    : Advanced Video Coding
Duration                         : 1h 41mn
Bit rate mode                    : Variable
Bit rate                         : 382 Kbps
Width                            : 480 pixels
Height                           : 272 pixels
Display aspect ratio             : 16:9
Frame rate mode                  : Constant
Frame rate                       : 24.000 fps
Resolution                       : 24 bits
Colorimetry                      : 4:2:0
Scan type                        : Progressive
Bits/(Pixel*Frame)               : 0.122
Stream size                      : 278 MiB (85%)
Encoded date                     : UTC 2010-03-29 15:39:25
Tagged date                      : UTC 2010-03-29 15:39:43

Audio
ID                               : 2
Format                           : AAC
Format/Info                      : Advanced Audio Codec
Format version                   : Version 4
Format profile                   : LC
Format settings, SBR             : Yes
Format settings, PS              : No
Codec ID                         : 40
Duration                         : 1h 41mn
Bit rate mode                    : Variable
Bit rate                         : 63.3 Kbps
Maximum bit rate                 : 164 Kbps
Channel(s)                       : 2 channels
Channel positions                : L R
Sampling rate                    : 48.0 KHz
Resolution                       : 16 bits
Stream size                      : 46.1 MiB (14%)
Encoded date                     : UTC 2010-03-29 15:39:43
Tagged date                      : UTC 2010-03-29 15:39:46

To repay a long-standing debt, an ex-con is asked to do the unthinkable--carry out a mysterious assassination against his politician brother
 
http://www.imdb.com/title/tt0473364/

.PLEASE SEED AND ENJOY 

screen shots
 
http://img190.imageshack.us/img190/9797/theheavyh264vicemp4thum.jpg